<svg width="107" height="28" viewBox="0 0 107 28" fill="none" xmlns="http://www.w3.org/2000/svg">
<path d="M5.22332 4.36C5.56332 4.16 6.07332 3.97 6.75332 3.79C7.45332 3.61 8.15332 3.52 8.85332 3.52C9.85332 3.52 10.7333 3.67 11.4933 3.97C12.2733 4.25 12.7733 4.7 12.9933 5.32C13.3533 6.36 13.7433 7.57 14.1633 8.95C14.5833 10.33 15.0033 11.76 15.4233 13.24C15.8433 14.7 16.2533 16.15 16.6533 17.59C17.0533 19.01 17.4033 20.27 17.7033 21.37C17.4633 21.65 17.1033 21.87 16.6233 22.03C16.1433 22.21 15.5733 22.3 14.9133 22.3C14.4333 22.3 14.0233 22.26 13.6833 22.18C13.3633 22.1 13.0933 21.98 12.8733 21.82C12.6733 21.66 12.5033 21.45 12.3633 21.19C12.2433 20.93 12.1333 20.63 12.0333 20.29L11.4933 18.22H6.06332C5.90332 18.82 5.74332 19.44 5.58332 20.08C5.42332 20.72 5.26332 21.34 5.10332 21.94C4.82332 22.04 4.52332 22.12 4.20332 22.18C3.90332 22.26 3.53332 22.3 3.09332 22.3C2.07332 22.3 1.31332 22.13 0.81332 21.79C0.33332 21.43 0.0933204 20.94 0.0933204 20.32C0.0933204 20.04 0.13332 19.76 0.21332 19.48C0.29332 19.2 0.38332 18.87 0.48332 18.49C0.62332 17.95 0.81332 17.28 1.05332 16.48C1.31332 15.68 1.59332 14.82 1.89332 13.9C2.19332 12.96 2.51332 12 2.85332 11.02C3.19332 10.04 3.51332 9.12 3.81332 8.26C4.11332 7.38 4.38332 6.6 4.62332 5.92C4.88332 5.24 5.08332 4.72 5.22332 4.36ZM8.82332 8.23C8.54332 9.07 8.22332 10.01 7.86332 11.05C7.52332 12.07 7.21332 13.11 6.93332 14.17H10.6533C10.3733 13.09 10.0833 12.04 9.78332 11.02C9.50332 9.98 9.24332 9.05 9.00332 8.23H8.82332ZM19.8019 3.37C19.8019 2.61 20.0519 1.97 20.5519 1.45C21.0719 0.929999 21.7519 0.669999 22.5919 0.669999C23.4319 0.669999 24.1019 0.929999 24.6019 1.45C25.1219 1.97 25.3819 2.61 25.3819 3.37C25.3819 4.13 25.1219 4.77 24.6019 5.29C24.1019 5.81 23.4319 6.07 22.5919 6.07C21.7519 6.07 21.0719 5.81 20.5519 5.29C20.0519 4.77 19.8019 4.13 19.8019 3.37ZM18.7819 24.04C19.2219 23.76 19.5419 23.37 19.7419 22.87C19.9419 22.39 20.0419 21.85 20.0419 21.25V7.63C20.2619 7.59 20.5819 7.54 21.0019 7.48C21.4419 7.4 21.8819 7.36 22.3219 7.36C22.7619 7.36 23.1519 7.39 23.4919 7.45C23.8519 7.51 24.1519 7.63 24.3919 7.81C24.6319 7.99 24.8119 8.24 24.9319 8.56C25.0719 8.86 25.1419 9.26 25.1419 9.76V21.73C25.1419 22.57 25.0419 23.33 24.8419 24.01C24.6419 24.69 24.3519 25.27 23.9719 25.75C23.6119 26.25 23.1619 26.63 22.6219 26.89C22.1019 27.17 21.5119 27.31 20.8519 27.31C19.9719 27.31 19.2819 27.04 18.7819 26.5C18.2819 25.98 18.0219 25.32 18.0019 24.52L18.7819 24.04ZM28.3852 7.63C28.5852 7.57 28.8952 7.51 29.3152 7.45C29.7552 7.39 30.2052 7.36 30.6652 7.36C31.1052 7.36 31.4952 7.39 31.8352 7.45C32.1952 7.51 32.4952 7.63 32.7352 7.81C32.9752 7.99 33.1552 8.24 33.2752 8.56C33.4152 8.86 33.4852 9.26 33.4852 9.76V16.21C33.4852 17.03 33.6852 17.62 34.0852 17.98C34.4852 18.32 35.0652 18.49 35.8252 18.49C36.2852 18.49 36.6552 18.45 36.9352 18.37C37.2352 18.29 37.4652 18.21 37.6252 18.13V7.63C37.8252 7.57 38.1352 7.51 38.5552 7.45C38.9952 7.39 39.4452 7.36 39.9052 7.36C40.3452 7.36 40.7352 7.39 41.0752 7.45C41.4352 7.51 41.7352 7.63 41.9752 7.81C42.2152 7.99 42.3952 8.24 42.5152 8.56C42.6552 8.86 42.7252 9.26 42.7252 9.76V18.88C42.7252 19.88 42.3052 20.63 41.4652 21.13C40.7652 21.57 39.9252 21.9 38.9452 22.12C37.9852 22.36 36.9352 22.48 35.7952 22.48C34.7152 22.48 33.7152 22.36 32.7952 22.12C31.8952 21.88 31.1152 21.51 30.4552 21.01C29.7952 20.51 29.2852 19.87 28.9252 19.09C28.5652 18.29 28.3852 17.33 28.3852 16.21V7.63ZM45.2161 14.71C45.2161 13.39 45.4161 12.25 45.8161 11.29C46.2161 10.31 46.7661 9.5 47.4661 8.86C48.1861 8.22 49.0161 7.75 49.9561 7.45C50.9161 7.13 51.9461 6.97 53.0461 6.97C53.4461 6.97 53.8361 7.01 54.2161 7.09C54.5961 7.15 54.9061 7.23 55.1461 7.33V2.47C55.3461 2.41 55.6661 2.35 56.1061 2.29C56.5461 2.21 56.9961 2.17 57.4561 2.17C57.8961 2.17 58.2861 2.2 58.6261 2.26C58.9861 2.32 59.2861 2.44 59.5261 2.62C59.7661 2.8 59.9461 3.05 60.0661 3.37C60.1861 3.67 60.2461 4.07 60.2461 4.57V18.79C60.2461 19.73 59.8061 20.48 58.9261 21.04C58.3461 21.42 57.5961 21.75 56.6761 22.03C55.7561 22.33 54.6961 22.48 53.4961 22.48C52.1961 22.48 51.0261 22.3 49.9861 21.94C48.9661 21.58 48.0961 21.06 47.3761 20.38C46.6761 19.7 46.1361 18.89 45.7561 17.95C45.3961 16.99 45.2161 15.91 45.2161 14.71ZM53.7361 10.96C52.6561 10.96 51.8261 11.27 51.2461 11.89C50.6661 12.51 50.3761 13.45 50.3761 14.71C50.3761 15.95 50.6461 16.89 51.1861 17.53C51.7261 18.15 52.5061 18.46 53.5261 18.46C53.8861 18.46 54.2061 18.41 54.4861 18.31C54.7861 18.19 55.0161 18.06 55.1761 17.92V11.32C54.7761 11.08 54.2961 10.96 53.7361 10.96ZM69.6643 18.76C70.0043 18.76 70.3743 18.73 70.7743 18.67C71.1943 18.59 71.5043 18.49 71.7043 18.37V15.97L69.5443 16.15C68.9843 16.19 68.5243 16.31 68.1643 16.51C67.8043 16.71 67.6243 17.01 67.6243 17.41C67.6243 17.81 67.7743 18.14 68.0743 18.4C68.3943 18.64 68.9243 18.76 69.6643 18.76ZM69.4243 6.97C70.5043 6.97 71.4843 7.08 72.3643 7.3C73.2643 7.52 74.0243 7.86 74.6443 8.32C75.2843 8.76 75.7743 9.33 76.1143 10.03C76.4543 10.71 76.6243 11.52 76.6243 12.46V19.18C76.6243 19.7 76.4743 20.13 76.1743 20.47C75.8943 20.79 75.5543 21.07 75.1543 21.31C73.8543 22.09 72.0243 22.48 69.6643 22.48C68.6043 22.48 67.6443 22.38 66.7843 22.18C65.9443 21.98 65.2143 21.68 64.5943 21.28C63.9943 20.88 63.5243 20.37 63.1843 19.75C62.8643 19.13 62.7043 18.41 62.7043 17.59C62.7043 16.21 63.1143 15.15 63.9343 14.41C64.7543 13.67 66.0243 13.21 67.7443 13.03L71.6743 12.61V12.4C71.6743 11.82 71.4143 11.41 70.8943 11.17C70.3943 10.91 69.6643 10.78 68.7043 10.78C67.9443 10.78 67.2043 10.86 66.4843 11.02C65.7643 11.18 65.1143 11.38 64.5343 11.62C64.2743 11.44 64.0543 11.17 63.8743 10.81C63.6943 10.43 63.6043 10.04 63.6043 9.64C63.6043 9.12 63.7243 8.71 63.9643 8.41C64.2243 8.09 64.6143 7.82 65.1343 7.6C65.7143 7.38 66.3943 7.22 67.1743 7.12C67.9743 7.02 68.7243 6.97 69.4243 6.97ZM84.8426 16.99C84.8426 17.51 85.0026 17.88 85.3226 18.1C85.6626 18.32 86.1326 18.43 86.7326 18.43C87.0326 18.43 87.3426 18.41 87.6626 18.37C87.9826 18.31 88.2626 18.24 88.5026 18.16C88.6826 18.38 88.8326 18.63 88.9526 18.91C89.0926 19.17 89.1626 19.49 89.1626 19.87C89.1626 20.63 88.8726 21.25 88.2926 21.73C87.7326 22.21 86.7326 22.45 85.2926 22.45C83.5326 22.45 82.1726 22.05 81.2126 21.25C80.2726 20.45 79.8026 19.15 79.8026 17.35V4.51C80.0226 4.45 80.3326 4.39 80.7326 4.33C81.1526 4.25 81.5926 4.21 82.0526 4.21C82.9326 4.21 83.6126 4.37 84.0926 4.69C84.5926 4.99 84.8426 5.64 84.8426 6.64V8.56H88.7726C88.8926 8.78 89.0026 9.06 89.1026 9.4C89.2226 9.72 89.2826 10.08 89.2826 10.48C89.2826 11.18 89.1226 11.69 88.8026 12.01C88.5026 12.31 88.0926 12.46 87.5726 12.46H84.8426V16.99ZM106.669 14.71C106.669 15.95 106.479 17.06 106.099 18.04C105.719 19 105.179 19.81 104.479 20.47C103.799 21.13 102.979 21.63 102.019 21.97C101.059 22.31 99.9886 22.48 98.8086 22.48C97.6286 22.48 96.5586 22.3 95.5986 21.94C94.6386 21.58 93.8086 21.07 93.1086 20.41C92.4286 19.73 91.8986 18.91 91.5186 17.95C91.1386 16.99 90.9486 15.91 90.9486 14.71C90.9486 13.53 91.1386 12.46 91.5186 11.5C91.8986 10.54 92.4286 9.73 93.1086 9.07C93.8086 8.39 94.6386 7.87 95.5986 7.51C96.5586 7.15 97.6286 6.97 98.8086 6.97C99.9886 6.97 101.059 7.16 102.019 7.54C102.979 7.9 103.799 8.42 104.479 9.1C105.179 9.76 105.719 10.57 106.099 11.53C106.479 12.49 106.669 13.55 106.669 14.71ZM96.1686 14.71C96.1686 15.93 96.3986 16.87 96.8586 17.53C97.3386 18.17 97.9986 18.49 98.8386 18.49C99.6786 18.49 100.319 18.16 100.759 17.5C101.219 16.84 101.449 15.91 101.449 14.71C101.449 13.51 101.219 12.59 100.759 11.95C100.299 11.29 99.6486 10.96 98.8086 10.96C97.9686 10.96 97.3186 11.29 96.8586 11.95C96.3986 12.59 96.1686 13.51 96.1686 14.71Z" fill="#FC9E9A"/>
<path d="M5.22332 4.36L4.56419 3.23949L4.17526 3.46827L4.01171 3.88882L5.22332 4.36ZM6.75332 3.79L6.42956 2.53093L6.42066 2.53328L6.75332 3.79ZM11.4933 3.97L11.016 5.1792L11.0349 5.18668L11.0541 5.19355L11.4933 3.97ZM12.9933 5.32L14.2218 4.89474L14.2185 4.88527L12.9933 5.32ZM14.1633 8.95L15.407 8.57149H15.407L14.1633 8.95ZM15.4233 13.24L14.1727 13.5949L14.174 13.5994L15.4233 13.24ZM16.6533 17.59L15.4007 17.9379L15.402 17.9425L16.6533 17.59ZM17.7033 21.37L18.6904 22.216L19.1388 21.6928L18.9575 21.0279L17.7033 21.37ZM16.6233 22.03L16.2122 20.7967L16.1894 20.8043L16.1669 20.8128L16.6233 22.03ZM13.6833 22.18L13.368 23.4412L13.3768 23.4434L13.3856 23.4454L13.6833 22.18ZM12.8733 21.82L12.0612 22.8351L12.0845 22.8538L12.1087 22.8714L12.8733 21.82ZM12.3633 21.19L11.183 21.7348L11.1997 21.7711L11.2187 21.8063L12.3633 21.19ZM12.0333 20.29L10.7754 20.6181L10.7805 20.6376L10.7861 20.6568L12.0333 20.29ZM11.4933 18.22L12.7512 17.8919L12.4977 16.92H11.4933V18.22ZM6.06332 18.22V16.92H5.06456L4.80722 17.885L6.06332 18.22ZM5.58332 20.08L4.32214 19.7647L5.58332 20.08ZM5.10332 21.94L5.54056 23.1643L6.18351 22.9346L6.35943 22.275L5.10332 21.94ZM4.20332 22.18L3.96375 20.9023L3.91565 20.9113L3.86836 20.9239L4.20332 22.18ZM0.81332 21.79L0.0333204 22.83L0.0574131 22.8481L0.0823174 22.865L0.81332 21.79ZM0.213321 19.48L-1.03666 19.1229L0.213321 19.48ZM0.48332 18.49L1.74053 18.8208L1.74172 18.8162L0.48332 18.49ZM1.05332 16.48L-0.183024 16.0782L-0.1876 16.0923L-0.191854 16.1064L1.05332 16.48ZM1.89332 13.9L3.12929 14.303L3.13178 14.2953L1.89332 13.9ZM2.85332 11.02L1.62514 10.5939L2.85332 11.02ZM3.81332 8.26L5.04081 8.68819L5.04378 8.67948L3.81332 8.26ZM4.62332 5.92L3.40905 5.45572L3.40304 5.47145L3.39743 5.48733L4.62332 5.92ZM8.82332 8.23V6.93H7.88633L7.59003 7.8189L8.82332 8.23ZM7.86332 11.05L6.63484 10.6248L6.63239 10.6318L6.63003 10.6389L7.86332 11.05ZM6.93332 14.17L5.67643 13.838L5.24534 15.47H6.93332V14.17ZM10.6533 14.17V15.47H12.3333L11.9117 13.8438L10.6533 14.17ZM9.78332 11.02L8.52802 11.358L8.53192 11.3724L8.53615 11.3868L9.78332 11.02ZM9.00332 8.23L10.251 7.86483L9.97737 6.93H9.00332V8.23ZM5.88245 5.48051C6.07029 5.37002 6.446 5.21612 7.08598 5.04671L6.42066 2.53328C5.70064 2.72387 5.05635 2.94998 4.56419 3.23949L5.88245 5.48051ZM7.07707 5.04904C7.67476 4.89535 8.26604 4.82 8.85332 4.82V2.22C8.0406 2.22 7.23188 2.32465 6.42957 2.53096L7.07707 5.04904ZM8.85332 4.82C9.72541 4.82 10.4378 4.95097 11.016 5.1792L11.9706 2.7608C11.0288 2.38902 9.98124 2.22 8.85332 2.22V4.82ZM11.0541 5.19355C11.5709 5.37907 11.7115 5.59492 11.7682 5.75473L14.2185 4.88527C13.8352 3.80508 12.9757 3.12093 11.9325 2.74645L11.0541 5.19355ZM11.7648 5.74524C12.1181 6.76588 12.503 7.95968 12.9196 9.32851L15.407 8.57149C14.9836 7.18032 14.5885 5.95412 14.2218 4.89475L11.7648 5.74524ZM12.9196 9.32851C13.3371 10.7002 13.7548 12.1223 14.1727 13.5949L16.6739 12.8851C16.2518 11.3977 15.8295 9.95983 15.407 8.57149L12.9196 9.32851ZM14.174 13.5994C14.5929 15.0556 15.0018 16.5018 15.4007 17.9379L17.9059 17.2421C17.5048 15.7982 17.0937 14.3444 16.6727 12.8806L14.174 13.5994ZM15.402 17.9425C15.8013 19.36 16.1503 20.6164 16.4491 21.7121L18.9575 21.0279C18.6563 19.9236 18.3053 18.66 17.9046 17.2375L15.402 17.9425ZM16.7163 20.524C16.6764 20.5705 16.5486 20.6846 16.2122 20.7967L17.0344 23.2633C17.6581 23.0554 18.2502 22.7295 18.6904 22.216L16.7163 20.524ZM16.1669 20.8128C15.868 20.9248 15.4601 21 14.9133 21V23.6C15.6866 23.6 16.4186 23.4952 17.0798 23.2472L16.1669 20.8128ZM14.9133 21C14.4991 21 14.1949 20.9649 13.9811 20.9146L13.3856 23.4454C13.8518 23.5551 14.3675 23.6 14.9133 23.6V21ZM13.9986 20.9188C13.807 20.8709 13.6977 20.8121 13.6379 20.7686L12.1087 22.8714C12.489 23.1479 12.9197 23.3291 13.368 23.4412L13.9986 20.9188ZM13.6854 20.8049C13.6412 20.7695 13.5776 20.7031 13.5079 20.5737L11.2187 21.8063C11.429 22.1969 11.7054 22.5505 12.0612 22.8351L13.6854 20.8049ZM13.5437 20.6452C13.4556 20.4545 13.3666 20.216 13.2805 19.9232L10.7861 20.6568C10.9 21.044 11.031 21.4055 11.183 21.7348L13.5437 20.6452ZM13.2912 19.9619L12.7512 17.8919L10.2354 18.5481L10.7754 20.6181L13.2912 19.9619ZM11.4933 16.92H6.06332V19.52H11.4933V16.92ZM4.80722 17.885C4.64537 18.492 4.48368 19.1185 4.32214 19.7647L6.84451 20.3953C7.00296 19.7615 7.16127 19.148 7.31943 18.555L4.80722 17.885ZM4.32214 19.7647C4.16368 20.3985 4.00537 21.012 3.84722 21.605L6.35943 22.275C6.52127 21.668 6.68296 21.0415 6.84451 20.3953L4.32214 19.7647ZM4.66608 20.7157C4.4562 20.7907 4.22282 20.8537 3.96375 20.9023L4.4429 23.4577C4.82382 23.3863 5.19044 23.2893 5.54056 23.1643L4.66608 20.7157ZM3.86836 20.9239C3.71252 20.9655 3.46317 21 3.09332 21V23.6C3.60347 23.6 4.09412 23.5546 4.53828 23.4361L3.86836 20.9239ZM3.09332 21C2.17361 21 1.7261 20.8386 1.54432 20.715L0.0823174 22.865C0.90054 23.4214 1.97303 23.6 3.09332 23.6V21ZM1.59332 20.75C1.45327 20.645 1.39332 20.5468 1.39332 20.32H-1.20668C-1.20668 21.3332 -0.78663 22.215 0.0333204 22.83L1.59332 20.75ZM1.39332 20.32C1.39332 20.1656 1.41515 20.0057 1.4633 19.8371L-1.03666 19.1229C-1.14851 19.5143 -1.20668 19.9144 -1.20668 20.32H1.39332ZM1.4633 19.8371C1.54649 19.546 1.63894 19.2068 1.74052 18.8208L-0.773877 18.1592C-0.872303 18.5332 -0.959846 18.854 -1.03666 19.1229L1.4633 19.8371ZM1.74172 18.8162C1.87613 18.2978 2.06114 17.6447 2.29849 16.8536L-0.191854 16.1064C-0.434498 16.9153 -0.629493 17.6022 -0.775075 18.1637L1.74172 18.8162ZM2.28966 16.8818C2.54952 16.0823 2.82938 15.2227 3.12927 14.303L0.657372 13.497C0.357259 14.4173 0.0771255 15.2777 -0.183024 16.0782L2.28966 16.8818ZM3.13178 14.2953C3.42832 13.3661 3.74488 12.4164 4.0815 11.4461L1.62514 10.5939C1.28176 11.5836 0.958322 12.5539 0.654863 13.5047L3.13178 14.2953ZM4.0815 11.4461C4.4213 10.4667 4.74105 9.5474 5.04078 8.68818L2.58586 7.83182C2.28559 8.69259 1.96535 9.61329 1.62514 10.5939L4.0815 11.4461ZM5.04378 8.67948C5.34269 7.8027 5.61112 7.02724 5.84921 6.35267L3.39743 5.48733C3.15552 6.17276 2.88396 6.9573 2.58286 7.84052L5.04378 8.67948ZM5.83759 6.38428C6.09733 5.70495 6.29628 5.18769 6.43493 4.83118L4.01171 3.88882C3.87036 4.25231 3.66931 4.77505 3.40905 5.45572L5.83759 6.38428ZM7.59003 7.8189C7.31193 8.65321 6.99358 9.58839 6.63484 10.6248L9.0918 11.4752C9.45306 10.4316 9.77471 9.48679 10.0566 8.6411L7.59003 7.8189ZM6.63003 10.6389C6.28116 11.6855 5.96332 12.7519 5.67643 13.838L8.19021 14.502C8.46332 13.4681 8.76548 12.4545 9.09661 11.4611L6.63003 10.6389ZM6.93332 15.47H10.6533V12.87H6.93332V15.47ZM11.9117 13.8438C11.6284 12.7508 11.3346 11.6873 11.0305 10.6532L8.53615 11.3868C8.832 12.3927 9.11827 13.4292 9.39493 14.4963L11.9117 13.8438ZM11.0386 10.682C10.7568 9.63516 10.4942 8.69584 10.251 7.86483L7.75566 8.59517C7.99244 9.40416 8.24987 10.3248 8.52802 11.358L11.0386 10.682ZM9.00332 6.93H8.82332V9.53H9.00332V6.93ZM20.5519 1.45L19.6327 0.530759L19.6237 0.53977L19.6148 0.548957L20.5519 1.45ZM24.6019 1.45L23.6648 2.35104L23.6737 2.36023L23.6827 2.36924L24.6019 1.45ZM24.6019 5.29L23.6827 4.37076L23.6737 4.37977L23.6648 4.38896L24.6019 5.29ZM20.5519 5.29L19.6148 6.19104L19.6237 6.20023L19.6327 6.20924L20.5519 5.29ZM18.7819 24.04L19.4632 25.1472L19.4716 25.142L19.4799 25.1368L18.7819 24.04ZM19.7419 22.87L18.5419 22.37L18.5383 22.3786L18.5349 22.3872L19.7419 22.87ZM20.0419 7.63L19.8094 6.35097L18.7419 6.54505V7.63H20.0419ZM21.0019 7.48L21.1858 8.76693L21.2102 8.76344L21.2345 8.75903L21.0019 7.48ZM23.4919 7.45L23.266 8.73028L23.2782 8.73231L23.4919 7.45ZM24.3919 7.81L25.1719 6.77L24.3919 7.81ZM24.9319 8.56L23.7147 9.01646L23.7325 9.06387L23.7539 9.10975L24.9319 8.56ZM24.8419 24.01L26.0891 24.3768L24.8419 24.01ZM23.9719 25.75L22.9527 24.9431L22.9342 24.9663L22.9169 24.9904L23.9719 25.75ZM22.6219 26.89L22.058 25.7187L22.0315 25.7314L22.0056 25.7454L22.6219 26.89ZM18.7819 26.5L19.7358 25.6168L19.7275 25.6078L19.719 25.599L18.7819 26.5ZM18.0019 24.52L17.3206 23.4128L16.6836 23.8048L16.7023 24.5525L18.0019 24.52ZM21.1019 3.37C21.1019 2.92608 21.2353 2.61491 21.489 2.35104L19.6148 0.548957C18.8686 1.32508 18.5019 2.29391 18.5019 3.37H21.1019ZM21.4712 2.36924C21.7121 2.1283 22.0434 1.97 22.5919 1.97V-0.630001C21.4604 -0.630001 20.4317 -0.268302 19.6327 0.530759L21.4712 2.36924ZM22.5919 1.97C23.1415 1.97 23.4505 2.12817 23.6648 2.35104L25.539 0.548956C24.7533 -0.268175 23.7223 -0.630001 22.5919 -0.630001V1.97ZM23.6827 2.36924C23.9499 2.63647 24.0819 2.94189 24.0819 3.37H26.6819C26.6819 2.27811 26.2939 1.30353 25.5212 0.53076L23.6827 2.36924ZM24.0819 3.37C24.0819 3.79811 23.9499 4.10353 23.6827 4.37076L25.5212 6.20924C26.2939 5.43647 26.6819 4.46189 26.6819 3.37H24.0819ZM23.6648 4.38896C23.4505 4.61183 23.1415 4.77 22.5919 4.77V7.37C23.7223 7.37 24.7533 7.00817 25.539 6.19104L23.6648 4.38896ZM22.5919 4.77C22.0434 4.77 21.7121 4.6117 21.4712 4.37076L19.6327 6.20924C20.4317 7.0083 21.4604 7.37 22.5919 7.37V4.77ZM21.489 4.38896C21.2353 4.12508 21.1019 3.81391 21.1019 3.37H18.5019C18.5019 4.44608 18.8686 5.41492 19.6148 6.19104L21.489 4.38896ZM19.4799 25.1368C20.1576 24.7055 20.6513 24.0969 20.9489 23.3528L18.5349 22.3872C18.4325 22.6431 18.2863 22.8145 18.084 22.9432L19.4799 25.1368ZM20.9419 23.37C21.2173 22.7091 21.3419 21.9955 21.3419 21.25H18.7419C18.7419 21.7045 18.6665 22.0709 18.5419 22.37L20.9419 23.37ZM21.3419 21.25V7.63H18.7419V21.25H21.3419ZM20.2745 8.90903C20.4698 8.87351 20.7704 8.82627 21.1858 8.76693L20.8181 6.19306C20.3934 6.25373 20.054 6.30649 19.8094 6.35097L20.2745 8.90903ZM21.2345 8.75903C21.599 8.69275 21.9612 8.66 22.3219 8.66V6.06C21.8027 6.06 21.2848 6.10725 20.7694 6.20097L21.2345 8.75903ZM22.3219 8.66C22.7057 8.66 23.0176 8.68638 23.266 8.73022L23.7178 6.16978C23.2862 6.09362 22.8182 6.06 22.3219 6.06V8.66ZM23.2782 8.73231C23.4767 8.7654 23.5709 8.81922 23.6119 8.85L25.1719 6.77C24.733 6.44078 24.2271 6.2546 23.7056 6.16769L23.2782 8.73231ZM23.6119 8.85C23.6269 8.86125 23.6693 8.89551 23.7147 9.01646L26.1491 8.10354C25.9545 7.58448 25.6369 7.11875 25.1719 6.77L23.6119 8.85ZM23.7539 9.10975C23.7832 9.17249 23.8419 9.36184 23.8419 9.76H26.4419C26.4419 9.15816 26.3607 8.54751 26.11 8.01025L23.7539 9.10975ZM23.8419 9.76V21.73H26.4419V9.76H23.8419ZM23.8419 21.73C23.8419 22.4681 23.7539 23.1019 23.5947 23.6432L26.0891 24.3768C26.3299 23.5581 26.4419 22.6719 26.4419 21.73H23.8419ZM23.5947 23.6432C23.4345 24.1882 23.2142 24.6127 22.9527 24.9431L24.9912 26.5569C25.4897 25.9273 25.8494 25.1918 26.0891 24.3768L23.5947 23.6432ZM22.9169 24.9904C22.68 25.3195 22.3969 25.5555 22.058 25.7187L23.1859 28.0613C23.927 27.7045 24.5438 27.1805 25.0269 26.5096L22.9169 24.9904ZM22.0056 25.7454C21.6964 25.9119 21.3225 26.01 20.8519 26.01V28.61C21.7013 28.61 22.5074 28.4281 23.2382 28.0346L22.0056 25.7454ZM20.8519 26.01C20.2571 26.01 19.942 25.8394 19.7358 25.6168L17.828 27.3832C18.6219 28.2406 19.6867 28.61 20.8519 28.61V26.01ZM19.719 25.599C19.4693 25.3393 19.3144 25.0013 19.3015 24.4875L16.7023 24.5525C16.7295 25.6387 17.0945 26.6207 17.8448 27.401L19.719 25.599ZM18.6832 25.6272L19.4632 25.1472L18.1006 22.9328L17.3206 23.4128L18.6832 25.6272ZM28.3852 7.63L28.0116 6.38482L27.0852 6.66276V7.63H28.3852ZM29.3152 7.45L29.1395 6.16189L29.1313 6.16306L29.3152 7.45ZM31.8352 7.45L31.6093 8.73028L31.6215 8.73231L31.8352 7.45ZM32.7352 7.81L33.5152 6.77H33.5152L32.7352 7.81ZM33.2752 8.56L32.058 9.01646L32.0757 9.06387L32.0972 9.10975L33.2752 8.56ZM34.0852 17.98L33.2155 18.9463L33.2292 18.9586L33.2433 18.9705L34.0852 17.98ZM36.9352 18.37L36.6002 17.1139L36.5891 17.1169L36.5781 17.12L36.9352 18.37ZM37.6252 18.13L38.2066 19.2928L38.9252 18.9334V18.13H37.6252ZM37.6252 7.63L37.2516 6.38482L36.3252 6.66276V7.63H37.6252ZM38.5552 7.45L38.3795 6.16189L38.3713 6.16306L38.5552 7.45ZM41.0752 7.45L40.8493 8.73028L40.8615 8.73231L41.0752 7.45ZM41.9752 7.81L41.1952 8.85V8.85L41.9752 7.81ZM42.5152 8.56L41.298 9.01646L41.3157 9.06387L41.3372 9.10975L42.5152 8.56ZM41.4652 21.13L40.8003 20.0129L40.7867 20.021L40.7734 20.0294L41.4652 21.13ZM38.9452 22.12L38.6604 20.8516L38.6451 20.855L38.6299 20.8588L38.9452 22.12ZM32.7952 22.12L32.4602 23.3761L32.467 23.3779L32.7952 22.12ZM30.4552 21.01L29.6702 22.0462V22.0462L30.4552 21.01ZM28.9252 19.09L27.7396 19.6235L27.7448 19.6348L28.9252 19.09ZM28.7587 8.87517C28.8614 8.84437 29.0919 8.7951 29.499 8.73693L29.1313 6.16306C28.6985 6.2249 28.309 6.29563 28.0116 6.38482L28.7587 8.87517ZM29.4908 8.73808C29.8706 8.68629 30.2619 8.66 30.6652 8.66V6.06C30.1485 6.06 29.6398 6.0937 29.1395 6.16192L29.4908 8.73808ZM30.6652 8.66C31.0489 8.66 31.3609 8.68638 31.6093 8.73022L32.0611 6.16978C31.6295 6.09362 31.1614 6.06 30.6652 6.06V8.66ZM31.6215 8.73231C31.82 8.7654 31.9142 8.81922 31.9552 8.85L33.5152 6.77C33.0762 6.44078 32.5704 6.2546 32.0489 6.16769L31.6215 8.73231ZM31.9552 8.85C31.9702 8.86125 32.0126 8.89551 32.058 9.01646L34.4924 8.10354C34.2978 7.58448 33.9802 7.11875 33.5152 6.77L31.9552 8.85ZM32.0972 9.10975C32.1264 9.17249 32.1852 9.36184 32.1852 9.76H34.7852C34.7852 9.15816 34.704 8.54751 34.4532 8.01025L32.0972 9.10975ZM32.1852 9.76V16.21H34.7852V9.76H32.1852ZM32.1852 16.21C32.1852 17.2058 32.4253 18.235 33.2155 18.9463L34.9548 17.0137C34.9451 17.005 34.7852 16.8542 34.7852 16.21H32.1852ZM33.2433 18.9705C33.9641 19.5832 34.8919 19.79 35.8252 19.79V17.19C35.2385 17.19 35.0063 17.0568 34.9271 16.9895L33.2433 18.9705ZM35.8252 19.79C36.3447 19.79 36.8492 19.7466 37.2923 19.62L36.5781 17.12C36.4612 17.1534 36.2256 17.19 35.8252 17.19V19.79ZM37.2702 19.6261C37.6029 19.5374 37.9309 19.4306 38.2066 19.2928L37.0438 16.9672C36.9995 16.9894 36.8674 17.0426 36.6002 17.1139L37.2702 19.6261ZM38.9252 18.13V7.63H36.3252V18.13H38.9252ZM37.9987 8.87517C38.1014 8.84437 38.3319 8.7951 38.739 8.73693L38.3713 6.16306C37.9385 6.2249 37.549 6.29563 37.2516 6.38482L37.9987 8.87517ZM38.7308 8.73808C39.1106 8.68629 39.5019 8.66 39.9052 8.66V6.06C39.3885 6.06 38.8798 6.0937 38.3795 6.16192L38.7308 8.73808ZM39.9052 8.66C40.2889 8.66 40.6009 8.68638 40.8493 8.73022L41.3011 6.16978C40.8695 6.09362 40.4014 6.06 39.9052 6.06V8.66ZM40.8615 8.73231C41.06 8.7654 41.1542 8.81922 41.1952 8.85L42.7552 6.77C42.3162 6.44078 41.8104 6.2546 41.2889 6.16769L40.8615 8.73231ZM41.1952 8.85C41.2102 8.86125 41.2526 8.89551 41.298 9.01646L43.7324 8.10354C43.5378 7.58448 43.2202 7.11874 42.7552 6.77L41.1952 8.85ZM41.3372 9.10975C41.3664 9.17249 41.4252 9.36184 41.4252 9.76H44.0252C44.0252 9.15816 43.944 8.54751 43.6932 8.01025L41.3372 9.10975ZM41.4252 9.76V18.88H44.0252V9.76H41.4252ZM41.4252 18.88C41.4252 19.4347 41.2355 19.7539 40.8003 20.0129L42.1301 22.2471C43.3749 21.5061 44.0252 20.3253 44.0252 18.88H41.4252ZM40.7734 20.0294C40.2221 20.3759 39.5262 20.6572 38.6604 20.8516L39.2299 23.3884C40.3242 23.1428 41.3083 22.7641 42.157 22.2306L40.7734 20.0294ZM38.6299 20.8588C37.7872 21.0695 36.8446 21.18 35.7952 21.18V23.78C37.0258 23.78 38.1832 23.6505 39.2605 23.3812L38.6299 20.8588ZM35.7952 21.18C34.8112 21.18 33.9228 21.0707 33.1233 20.8621L32.467 23.3779C33.5076 23.6493 34.6192 23.78 35.7952 23.78V21.18ZM33.1302 20.8639C32.3727 20.6619 31.7501 20.3601 31.2402 19.9738L29.6702 22.0462C30.4803 22.6599 31.4177 23.0981 32.4602 23.3761L33.1302 20.8639ZM31.2402 19.9738C30.7568 19.6076 30.3796 19.139 30.1055 18.5452L27.7448 19.6348C28.1908 20.601 28.8336 21.4124 29.6702 22.0462L31.2402 19.9738ZM30.1107 18.5565C29.844 17.9638 29.6852 17.1951 29.6852 16.21H27.0852C27.0852 17.4649 27.2864 18.6162 27.7397 19.6235L30.1107 18.5565ZM29.6852 16.21V7.63H27.0852V16.21H29.6852ZM45.8161 11.29L47.0162 11.79L47.0197 11.7813L45.8161 11.29ZM47.4661 8.86L46.6025 7.88837L46.5957 7.89442L46.5889 7.90056L47.4661 8.86ZM49.9561 7.45L50.3514 8.68846L50.3593 8.68592L50.3672 8.68329L49.9561 7.45ZM54.2161 7.09L53.9483 8.36211L53.9807 8.36893L54.0134 8.37409L54.2161 7.09ZM55.1461 7.33L54.6461 8.53L56.4461 9.28V7.33H55.1461ZM55.1461 2.47L54.7726 1.22483L53.8461 1.50276V2.47H55.1461ZM56.1061 2.29L56.2818 3.57808L56.3103 3.57419L56.3387 3.56903L56.1061 2.29ZM58.6261 2.26L58.4002 3.54028L58.4124 3.54231L58.6261 2.26ZM59.5261 2.62L58.7461 3.66V3.66L59.5261 2.62ZM60.0661 3.37L58.8489 3.82646L58.8539 3.83969L58.8591 3.8528L60.0661 3.37ZM58.9261 21.04L58.2282 19.9432L58.2209 19.9479L58.2137 19.9526L58.9261 21.04ZM56.6761 22.03L56.2976 20.7863L56.2853 20.7901L56.2731 20.7941L56.6761 22.03ZM49.9861 21.94L49.5535 23.1659L49.5609 23.1685L49.9861 21.94ZM47.3761 20.38L46.4703 21.3125L46.4769 21.3188L46.4835 21.3251L47.3761 20.38ZM45.7561 17.95L44.5389 18.4065L44.5447 18.4219L44.5509 18.4372L45.7561 17.95ZM51.2461 11.89L52.1955 12.7781L52.1955 12.7781L51.2461 11.89ZM51.1861 17.53L50.1926 18.3683L50.1991 18.3761L50.2058 18.3838L51.1861 17.53ZM54.4861 18.31L54.9234 19.5343L54.9463 19.5261L54.9689 19.517L54.4861 18.31ZM55.1761 17.92L56.0322 18.8983L56.4761 18.5099V17.92H55.1761ZM55.1761 11.32H56.4761V10.584L55.845 10.2053L55.1761 11.32ZM46.5161 14.71C46.5161 13.5172 46.6973 12.5552 47.0161 11.79L44.6161 10.79C44.1349 11.9448 43.9161 13.2628 43.9161 14.71H46.5161ZM47.0197 11.7813C47.3555 10.9587 47.8012 10.3151 48.3433 9.81944L46.5889 7.90056C45.7311 8.68489 45.0768 9.66127 44.6125 10.7987L47.0197 11.7813ZM48.3298 9.83163C48.9107 9.3153 49.5801 8.9346 50.3514 8.68846L49.5609 6.21154C48.4521 6.5654 47.4616 7.1247 46.6025 7.88837L48.3298 9.83163ZM50.3672 8.68329C51.1836 8.41115 52.0737 8.27 53.0461 8.27V5.67C51.8185 5.67 50.6486 5.84885 49.545 6.21671L50.3672 8.68329ZM53.0461 8.27C53.3588 8.27 53.659 8.3012 53.9483 8.36211L54.4839 5.81789C54.0133 5.71879 53.5334 5.67 53.0461 5.67V8.27ZM54.0134 8.37409C54.3351 8.42488 54.5352 8.48378 54.6461 8.53L55.6461 6.13C55.2771 5.97622 54.8572 5.87512 54.4189 5.80591L54.0134 8.37409ZM56.4461 7.33V2.47H53.8461V7.33H56.4461ZM55.5197 3.71517C55.6165 3.68612 55.8516 3.63675 56.2818 3.57808L55.9305 1.00192C55.4807 1.06325 55.0758 1.13387 54.7726 1.22483L55.5197 3.71517ZM56.3387 3.56903C56.6998 3.50337 57.0719 3.47 57.4561 3.47V0.87C56.9204 0.87 56.3925 0.916625 55.8736 1.01097L56.3387 3.56903ZM57.4561 3.47C57.8399 3.47 58.1518 3.49638 58.4002 3.54022L58.8521 0.979779C58.4205 0.903617 57.9524 0.87 57.4561 0.87V3.47ZM58.4124 3.54231C58.6109 3.5754 58.7051 3.62922 58.7461 3.66L60.3061 1.58C59.8672 1.25078 59.3613 1.0646 58.8399 0.977687L58.4124 3.54231ZM58.7461 3.66C58.7611 3.67126 58.8036 3.70551 58.8489 3.82646L61.2834 2.91354C61.0887 2.39448 60.7711 1.92874 60.3061 1.58L58.7461 3.66ZM58.8591 3.8528C58.8935 3.93876 58.9461 4.15455 58.9461 4.57H61.5461C61.5461 3.98545 61.4788 3.40124 61.2732 2.88719L58.8591 3.8528ZM58.9461 4.57V18.79H61.5461V4.57H58.9461ZM58.9461 18.79C58.9461 19.2306 58.782 19.5908 58.2282 19.9432L59.6241 22.1368C60.8302 21.3692 61.5461 20.2294 61.5461 18.79H58.9461ZM58.2137 19.9526C57.7683 20.2444 57.1415 20.5295 56.2976 20.7863L57.0546 23.2737C58.0508 22.9705 58.924 22.5956 59.6386 22.1274L58.2137 19.9526ZM56.2731 20.7941C55.5101 21.0428 54.5907 21.18 53.4961 21.18V23.78C54.8015 23.78 56.0021 23.6172 57.0792 23.2659L56.2731 20.7941ZM53.4961 21.18C52.3153 21.18 51.2924 21.0165 50.4114 20.7115L49.5609 23.1685C50.7599 23.5835 52.077 23.78 53.4961 23.78V21.18ZM50.4188 20.7141C49.5541 20.4089 48.845 19.9791 48.2687 19.4349L46.4835 21.3251C47.3473 22.1409 48.3782 22.7511 49.5535 23.1659L50.4188 20.7141ZM48.282 19.4475C47.7167 18.8984 47.2763 18.2418 46.9614 17.4628L44.5509 18.4372C44.996 19.5382 45.6356 20.5016 46.4703 21.3125L48.282 19.4475ZM46.9734 17.4935C46.6766 16.7021 46.5161 15.7802 46.5161 14.71H43.9161C43.9161 16.0398 44.1157 17.2779 44.5389 18.4065L46.9734 17.4935ZM53.7361 9.66C52.4002 9.66 51.1856 10.0518 50.2968 11.0019L52.1955 12.7781C52.4667 12.4882 52.912 12.26 53.7361 12.26V9.66ZM50.2968 11.0019C49.4033 11.957 49.0761 13.2771 49.0761 14.71H51.6761C51.6761 13.6229 51.929 13.063 52.1955 12.7781L50.2968 11.0019ZM49.0761 14.71C49.0761 16.1138 49.3787 17.4038 50.1926 18.3683L52.1797 16.6917C51.9135 16.3762 51.6761 15.7862 51.6761 14.71H49.0761ZM50.2058 18.3838C51.0505 19.3536 52.2282 19.76 53.5261 19.76V17.16C52.7841 17.16 52.4018 16.9464 52.1664 16.6762L50.2058 18.3838ZM53.5261 19.76C54.0047 19.76 54.477 19.6937 54.9234 19.5343L54.0489 17.0857C53.9353 17.1263 53.7676 17.16 53.5261 17.16V19.76ZM54.9689 19.517C55.342 19.3678 55.7198 19.1717 56.0322 18.8983L54.3201 16.9417C54.3205 16.9412 54.2995 16.9594 54.244 16.9908C54.1892 17.0217 54.1108 17.06 54.0033 17.103L54.9689 19.517ZM56.4761 17.92V11.32H53.8761V17.92H56.4761ZM55.845 10.2053C55.2058 9.82175 54.4843 9.66 53.7361 9.66V12.26C54.108 12.26 54.3465 12.3382 54.5073 12.4347L55.845 10.2053ZM70.7743 18.67L70.9671 19.9556L70.9924 19.9518L71.0175 19.947L70.7743 18.67ZM71.7043 18.37L72.3731 19.4847L73.0043 19.106V18.37H71.7043ZM71.7043 15.97H73.0043V14.5572L71.5963 14.6745L71.7043 15.97ZM69.5443 16.15L69.6369 17.4467L69.6446 17.4461L69.6522 17.4455L69.5443 16.15ZM68.1643 16.51L67.5329 15.3736L68.1643 16.51ZM68.0743 18.4L67.2228 19.3824L67.2575 19.4125L67.2943 19.44L68.0743 18.4ZM72.3643 7.3L72.049 8.5612L72.0556 8.56282L72.3643 7.3ZM74.6443 8.32L73.8697 9.36403L73.8885 9.37798L73.9078 9.39125L74.6443 8.32ZM76.1143 10.03L74.9449 10.598L74.9482 10.6047L74.9515 10.6114L76.1143 10.03ZM76.1743 20.47L75.1995 19.6099L75.1959 19.6139L76.1743 20.47ZM75.1543 21.31L74.4854 20.1953L75.1543 21.31ZM66.7843 22.18L66.4831 23.4447L66.4898 23.4462L66.7843 22.18ZM64.5943 21.28L63.8731 22.3617L63.8813 22.3671L63.8895 22.3724L64.5943 21.28ZM63.1843 19.75L62.0291 20.3462L62.0365 20.3608L62.0444 20.3751L63.1843 19.75ZM63.9343 14.41L63.0633 13.4449L63.9343 14.41ZM67.7443 13.03L67.8796 14.3229L67.8824 14.3226L67.7443 13.03ZM71.6743 12.61L71.8124 13.9026L72.9743 13.7785V12.61H71.6743ZM70.8943 11.17L70.2945 12.3234L70.3217 12.3375L70.3495 12.3503L70.8943 11.17ZM66.4843 11.02L66.2022 9.75096L66.4843 11.02ZM64.5343 11.62L63.7943 12.6888L64.3767 13.0921L65.0313 12.8212L64.5343 11.62ZM63.8743 10.81L62.6994 11.3665L62.7053 11.379L62.7115 11.3914L63.8743 10.81ZM63.9643 8.41L62.9553 7.59021L62.9491 7.5979L63.9643 8.41ZM65.1343 7.6L64.6732 6.3845L64.6503 6.39319L64.6277 6.40274L65.1343 7.6ZM67.1743 7.12L67.013 5.83003L67.0089 5.83055L67.1743 7.12ZM69.6643 20.06C70.0795 20.06 70.5148 20.0235 70.9671 19.9556L70.5814 17.3844C70.2337 17.4365 69.929 17.46 69.6643 17.46V20.06ZM71.0175 19.947C71.4842 19.8582 71.9746 19.7238 72.3731 19.4847L71.0354 17.2553C71.0464 17.2487 71.0175 17.2672 70.9227 17.2978C70.8316 17.3271 70.7036 17.3601 70.531 17.393L71.0175 19.947ZM73.0043 18.37V15.97H70.4043V18.37H73.0043ZM71.5963 14.6745L69.4363 14.8545L69.6522 17.4455L71.8122 17.2655L71.5963 14.6745ZM69.4516 14.8533C68.7674 14.9022 68.1074 15.0544 67.5329 15.3736L68.7956 17.6464C68.9411 17.5656 69.2011 17.4778 69.6369 17.4467L69.4516 14.8533ZM67.5329 15.3736C67.1891 15.5646 66.8711 15.8384 66.6445 16.2162C66.4167 16.5958 66.3243 17.0088 66.3243 17.41H68.9243C68.9243 17.4077 68.9245 17.4237 68.917 17.4525C68.9094 17.4824 68.8956 17.5179 68.874 17.5538C68.8274 17.6316 68.7794 17.6554 68.7956 17.6464L67.5329 15.3736ZM66.3243 17.41C66.3243 18.1837 66.6355 18.8733 67.2228 19.3824L68.9257 17.4176C68.9132 17.4068 68.9097 17.4018 68.911 17.4035C68.9116 17.4042 68.913 17.4061 68.9148 17.4091C68.9166 17.4121 68.9185 17.4157 68.9202 17.4196C68.922 17.4234 68.9234 17.427 68.9243 17.4301C68.9253 17.4331 68.9257 17.4349 68.9258 17.4352C68.926 17.4361 68.9243 17.4285 68.9243 17.41H66.3243ZM67.2943 19.44C67.9624 19.9411 68.8506 20.06 69.6643 20.06V17.46C69.3587 17.46 69.1427 17.4347 68.9988 17.4021C68.852 17.3688 68.8253 17.3383 68.8543 17.36L67.2943 19.44ZM69.4243 8.27C70.4175 8.27 71.2894 8.3713 72.049 8.56118L72.6796 6.03881C71.6791 5.78869 70.591 5.67 69.4243 5.67V8.27ZM72.0556 8.56282C72.8202 8.74973 73.4137 9.02575 73.8697 9.36403L75.4189 7.27597C74.6348 6.69424 73.7083 6.29027 72.673 6.03718L72.0556 8.56282ZM73.9078 9.39125C74.362 9.70352 74.703 10.0999 74.9449 10.598L77.2836 9.46202C76.8455 8.56005 76.2066 7.81648 75.3807 7.24874L73.9078 9.39125ZM74.9515 10.6114C75.1824 11.0732 75.3243 11.675 75.3243 12.46H77.9243C77.9243 11.365 77.7261 10.3468 77.277 9.44862L74.9515 10.6114ZM75.3243 12.46V19.18H77.9243V12.46H75.3243ZM75.3243 19.18C75.3243 19.4328 75.2593 19.5421 75.1995 19.6099L77.149 21.3301C77.6892 20.7179 77.9243 19.9672 77.9243 19.18H75.3243ZM75.1959 19.6139C75.0132 19.8228 74.7806 20.0181 74.4854 20.1953L75.8231 22.4247C76.3279 22.1219 76.7753 21.7572 77.1526 21.3261L75.1959 19.6139ZM74.4854 20.1953C73.4702 20.8044 71.9087 21.18 69.6643 21.18V23.78C72.1398 23.78 74.2383 23.3756 75.8231 22.4247L74.4854 20.1953ZM69.6643 21.18C68.6843 21.18 67.8252 21.0874 67.0787 20.9138L66.4898 23.4462C67.4633 23.6726 68.5242 23.78 69.6643 23.78V21.18ZM67.0854 20.9154C66.3648 20.7438 65.7761 20.4954 65.299 20.1876L63.8895 22.3724C64.6524 22.8646 65.5237 23.2162 66.4832 23.4446L67.0854 20.9154ZM65.3154 20.1983C64.8861 19.9122 64.5613 19.5575 64.3241 19.1249L62.0444 20.3751C62.4872 21.1825 63.1024 21.8478 63.8731 22.3617L65.3154 20.1983ZM64.3395 19.1538C64.13 18.7479 64.0043 18.2388 64.0043 17.59H61.4043C61.4043 18.5812 61.5985 19.5121 62.0291 20.3462L64.3395 19.1538ZM64.0043 17.59C64.0043 16.4794 64.3238 15.8095 64.8052 15.3751L63.0633 13.4449C61.9047 14.4905 61.4043 15.9406 61.4043 17.59H64.0043ZM64.8052 15.3751C65.3346 14.8974 66.2891 14.4894 67.8796 14.3229L67.6089 11.7371C65.7594 11.9306 64.1739 12.4426 63.0633 13.4449L64.8052 15.3751ZM67.8824 14.3226L71.8124 13.9026L71.5361 11.3174L67.6061 11.7374L67.8824 14.3226ZM72.9743 12.61V12.4H70.3743V12.61H72.9743ZM72.9743 12.4C72.9743 11.912 72.8629 11.412 72.5771 10.9613C72.2906 10.5095 71.8846 10.1953 71.439 9.98965L70.3495 12.3503C70.3693 12.3595 70.3829 12.3671 70.3913 12.3724C70.3956 12.375 70.3986 12.3771 70.4005 12.3785C70.4024 12.3798 70.4033 12.3806 70.4033 12.3806C70.4033 12.3806 70.4025 12.3799 70.4012 12.3786C70.3998 12.3773 70.3979 12.3754 70.3958 12.3729C70.3912 12.3678 70.3862 12.3613 70.3814 12.3537C70.3709 12.3372 70.3678 12.3258 70.3681 12.3271C70.3689 12.3298 70.3743 12.3519 70.3743 12.4H72.9743ZM71.494 10.0166C70.7213 9.61482 69.745 9.48 68.7043 9.48V12.08C69.5835 12.08 70.0672 12.2052 70.2945 12.3234L71.494 10.0166ZM68.7043 9.48C67.8523 9.48 67.0176 9.56976 66.2022 9.75096L66.7663 12.289C67.3909 12.1502 68.0362 12.08 68.7043 12.08V9.48ZM66.2022 9.75096C65.4211 9.92454 64.6976 10.1455 64.0372 10.4188L65.0313 12.8212C65.5309 12.6145 66.1074 12.4355 66.7663 12.289L66.2022 9.75096ZM65.2742 10.5511C65.2364 10.525 65.1454 10.4453 65.037 10.2286L62.7115 11.3914C62.9632 11.8947 63.3121 12.355 63.7943 12.6888L65.2742 10.5511ZM65.0491 10.2535C64.9472 10.0383 64.9043 9.83767 64.9043 9.64H62.3043C62.3043 10.2423 62.4413 10.8217 62.6994 11.3665L65.0491 10.2535ZM64.9043 9.64C64.9043 9.4778 64.9232 9.37161 64.9419 9.30767C64.9596 9.24716 64.9765 9.22565 64.9794 9.2221L62.9491 7.5979C62.4689 8.19821 62.3043 8.92871 62.3043 9.64H64.9043ZM64.9732 9.22977C65.0588 9.1244 65.2478 8.96352 65.6408 8.79726L64.6277 6.40274C63.9807 6.67648 63.3897 7.0556 62.9553 7.59023L64.9732 9.22977ZM65.5953 8.8155C66.0586 8.63978 66.6352 8.49975 67.3396 8.40944L67.0089 5.83055C66.1534 5.94024 65.3699 6.12022 64.6732 6.3845L65.5953 8.8155ZM67.3355 8.40996C68.0899 8.31567 68.7855 8.27 69.4243 8.27V5.67C68.663 5.67 67.8587 5.72433 67.013 5.83004L67.3355 8.40996ZM85.3226 18.1L84.5861 19.1713L84.6011 19.1816L84.6164 19.1914L85.3226 18.1ZM87.6626 18.37L87.8239 19.66L87.8632 19.655L87.9022 19.6477L87.6626 18.37ZM88.5026 18.16L89.5088 17.3368L88.9414 16.6434L88.0915 16.9267L88.5026 18.16ZM88.9526 18.91L87.7577 19.4221L87.7805 19.4753L87.808 19.5263L88.9526 18.91ZM88.2926 21.73L87.4638 20.7285L87.4551 20.7357L87.4466 20.743L88.2926 21.73ZM81.2126 21.25L80.37 22.2401L80.3804 22.2487L81.2126 21.25ZM79.8026 4.51L79.4606 3.25581L78.5026 3.51707V4.51H79.8026ZM80.7326 4.33L80.9255 5.61562L80.9507 5.61182L80.9759 5.60704L80.7326 4.33ZM84.0926 4.69L83.3715 5.77166L83.3972 5.78882L83.4238 5.80474L84.0926 4.69ZM84.8426 8.56H83.5426V9.86H84.8426V8.56ZM88.7726 8.56L89.9139 7.93749L89.5443 7.26H88.7726V8.56ZM89.1026 9.4L87.8554 9.76682L87.8688 9.81218L87.8854 9.85646L89.1026 9.4ZM84.8426 12.46V11.16H83.5426V12.46H84.8426ZM83.5426 16.99C83.5426 17.7784 83.7995 18.6305 84.5861 19.1713L86.0591 17.0287C86.0791 17.0425 86.1012 17.062 86.121 17.0865C86.1407 17.1106 86.1513 17.1311 86.1558 17.1415C86.1635 17.1593 86.1426 17.1218 86.1426 16.99H83.5426ZM84.6164 19.1914C85.2452 19.5983 85.9955 19.73 86.7326 19.73V17.13C86.2698 17.13 86.0801 17.0417 86.0288 17.0086L84.6164 19.1914ZM86.7326 19.73C87.0904 19.73 87.4543 19.7062 87.8239 19.66L87.5014 17.08C87.2309 17.1138 86.9749 17.13 86.7326 17.13V19.73ZM87.9022 19.6477C88.2648 19.5798 88.6044 19.4964 88.9137 19.3933L88.0915 16.9267C87.9209 16.9836 87.7005 17.0402 87.423 17.0923L87.9022 19.6477ZM87.4965 18.9832C87.594 19.1024 87.6823 19.2461 87.7577 19.4221L90.1475 18.3979C89.9829 18.0139 89.7713 17.6576 89.5088 17.3368L87.4965 18.9832ZM87.808 19.5263C87.8209 19.5503 87.8626 19.6451 87.8626 19.87H90.4626C90.4626 19.3349 90.3643 18.7897 90.0972 18.2937L87.808 19.5263ZM87.8626 19.87C87.8626 20.2469 87.7421 20.4982 87.4638 20.7285L89.1215 22.7315C90.0031 22.0018 90.4626 21.0131 90.4626 19.87H87.8626ZM87.4466 20.743C87.2617 20.9014 86.6765 21.15 85.2926 21.15V23.75C86.7888 23.75 88.2035 23.5186 89.1386 22.717L87.4466 20.743ZM85.2926 21.15C83.7142 21.15 82.6918 20.7904 82.0449 20.2513L80.3804 22.2487C81.6534 23.3096 83.351 23.75 85.2926 23.75V21.15ZM82.0552 20.26C81.5186 19.8033 81.1026 18.948 81.1026 17.35H78.5026C78.5026 19.352 79.0267 21.0967 80.3701 22.24L82.0552 20.26ZM81.1026 17.35V4.51H78.5026V17.35H81.1026ZM80.1447 5.76419C80.292 5.72402 80.5437 5.67288 80.9255 5.61562L80.5398 3.04438C80.1215 3.10712 79.7533 3.17598 79.4606 3.25581L80.1447 5.76419ZM80.9759 5.60704C81.3099 5.54342 81.6681 5.51 82.0526 5.51V2.91C81.5171 2.91 80.9953 2.95658 80.4894 3.05296L80.9759 5.60704ZM82.0526 5.51C82.8017 5.51 83.1899 5.65062 83.3715 5.77166L84.8137 3.60833C84.0353 3.08937 83.0636 2.91 82.0526 2.91V5.51ZM83.4238 5.80474C83.3793 5.77803 83.3999 5.76043 83.4418 5.86917C83.4904 5.99549 83.5426 6.23577 83.5426 6.64H86.1426C86.1426 5.51558 85.8719 4.24154 84.7615 3.57526L83.4238 5.80474ZM83.5426 6.64V8.56H86.1426V6.64H83.5426ZM84.8426 9.86H88.7726V7.26H84.8426V9.86ZM87.6314 9.18251C87.693 9.2956 87.7717 9.48223 87.8554 9.76682L90.3498 9.03318C90.2335 8.63777 90.0922 8.2644 89.9139 7.93749L87.6314 9.18251ZM87.8854 9.85646C87.9422 10.0079 87.9826 10.2098 87.9826 10.48H90.5826C90.5826 9.95018 90.503 9.43206 90.3198 8.94354L87.8854 9.85646ZM87.9826 10.48C87.9826 11.0192 87.8547 11.1195 87.8834 11.0908L89.7219 12.9292C90.3906 12.2605 90.5826 11.3408 90.5826 10.48H87.9826ZM87.8834 11.0908C87.88 11.0941 87.8305 11.16 87.5726 11.16V13.76C88.3547 13.76 89.1252 13.5259 89.7219 12.9292L87.8834 11.0908ZM87.5726 11.16H84.8426V13.76H87.5726V11.16ZM83.5426 12.46V16.99H86.1426V12.46H83.5426ZM106.099 18.04L107.307 18.5185L107.311 18.51L106.099 18.04ZM104.479 20.47L103.587 19.5241L103.58 19.5306L103.573 19.5371L104.479 20.47ZM102.019 21.97L101.585 20.7446L102.019 21.97ZM95.5986 21.94L95.1421 23.1572L95.5986 21.94ZM93.1086 20.41L92.1893 21.3292L92.2028 21.3428L92.2167 21.3559L93.1086 20.41ZM91.5186 17.95L90.3098 18.4285L91.5186 17.95ZM91.5186 11.5L90.3098 11.0215L91.5186 11.5ZM93.1086 9.07L94.014 10.0029L94.0144 10.0025L93.1086 9.07ZM95.5986 7.51L96.055 8.72723L95.5986 7.51ZM102.019 7.54L101.54 8.74875L101.551 8.75309L101.562 8.75723L102.019 7.54ZM104.479 9.1L103.559 10.0192L103.573 10.0328L103.587 10.0459L104.479 9.1ZM106.099 11.53L104.89 12.0085L106.099 11.53ZM96.8586 17.53L95.792 18.2733L95.805 18.2919L95.8186 18.31L96.8586 17.53ZM100.759 17.5L99.692 16.7567L99.6843 16.7677L99.6769 16.7789L100.759 17.5ZM100.759 11.95L99.692 12.6933L99.6974 12.7011L99.7029 12.7087L100.759 11.95ZM96.8586 11.95L97.9142 12.7087L97.9197 12.7011L97.9251 12.6933L96.8586 11.95ZM105.369 14.71C105.369 15.8176 105.199 16.7642 104.886 17.57L107.311 18.51C107.758 17.3558 107.969 16.0824 107.969 14.71H105.369ZM104.89 17.5615C104.575 18.3576 104.138 19.0042 103.587 19.5241L105.37 21.4159C106.219 20.6158 106.862 19.6424 107.307 18.5185L104.89 17.5615ZM103.573 19.5371C103.037 20.0573 102.382 20.4623 101.585 20.7446L102.453 23.1954C103.576 22.7977 104.56 22.2027 105.384 21.4029L103.573 19.5371ZM101.585 20.7446C100.784 21.0281 99.8637 21.18 98.8086 21.18V23.78C100.113 23.78 101.333 23.5919 102.453 23.1954L101.585 20.7446ZM98.8086 21.18C97.7612 21.18 96.8488 21.0204 96.055 20.7228L95.1421 23.1572C96.2683 23.5796 97.4959 23.78 98.8086 23.78V21.18ZM96.055 20.7228C95.246 20.4194 94.5666 19.998 94.0004 19.4641L92.2167 21.3559C93.0505 22.142 94.0312 22.7406 95.1421 23.1572L96.055 20.7228ZM94.0278 19.4908C93.4824 18.9454 93.0468 18.2787 92.7273 17.4715L90.3098 18.4285C90.7503 19.5413 91.3747 20.5146 92.1893 21.3292L94.0278 19.4908ZM92.7273 17.4715C92.4165 16.6864 92.2486 15.7724 92.2486 14.71H89.6486C89.6486 16.0476 89.8606 17.2936 90.3098 18.4285L92.7273 17.4715ZM92.2486 14.71C92.2486 13.6706 92.4156 12.766 92.7273 11.9785L90.3098 11.0215C89.8615 12.154 89.6486 13.3894 89.6486 14.71H92.2486ZM92.7273 11.9785C93.0457 11.1742 93.4776 10.5235 94.014 10.0029L92.2031 8.13714C91.3795 8.93654 90.7514 9.9058 90.3098 11.0215L92.7273 11.9785ZM94.0144 10.0025C94.5794 9.45363 95.2542 9.02754 96.055 8.72723L95.1421 6.29277C94.0229 6.71246 93.0378 7.32637 92.2027 8.13754L94.0144 10.0025ZM96.055 8.72723C96.8488 8.42955 97.7612 8.27 98.8086 8.27V5.67C97.4959 5.67 96.2683 5.87044 95.1421 6.29277L96.055 8.72723ZM98.8086 8.27C99.8479 8.27 100.753 8.43702 101.54 8.74875L102.497 6.33125C101.365 5.88298 100.129 5.67 98.8086 5.67V8.27ZM101.562 8.75723C102.36 9.05646 103.019 9.47902 103.559 10.0192L105.398 8.18076C104.578 7.36098 103.597 6.74354 102.475 6.32277L101.562 8.75723ZM103.587 10.0459C104.138 10.5658 104.575 11.2124 104.89 12.0085L107.307 11.0515C106.862 9.92759 106.219 8.95423 105.37 8.15413L103.587 10.0459ZM104.89 12.0085C105.203 12.7985 105.369 13.6937 105.369 14.71H107.969C107.969 13.4063 107.755 12.1815 107.307 11.0515L104.89 12.0085ZM94.8686 14.71C94.8686 16.067 95.1201 17.3092 95.792 18.2733L97.9251 16.7867C97.677 16.4308 97.4686 15.793 97.4686 14.71H94.8686ZM95.8186 18.31C96.5581 19.296 97.6133 19.79 98.8386 19.79V17.19C98.3838 17.19 98.119 17.044 97.8986 16.75L95.8186 18.31ZM98.8386 19.79C100.083 19.79 101.143 19.2675 101.84 18.2211L99.6769 16.7789C99.4945 17.0525 99.2745 17.19 98.8386 17.19V19.79ZM101.825 18.2433C102.495 17.2821 102.749 16.0524 102.749 14.71H100.149C100.149 15.7676 99.9421 16.3979 99.692 16.7567L101.825 18.2433ZM102.749 14.71C102.749 13.3715 102.497 12.1406 101.814 11.1913L99.7029 12.7087C99.9406 13.0394 100.149 13.6485 100.149 14.71H102.749ZM101.825 11.2067C101.11 10.18 100.051 9.66 98.8086 9.66V12.26C99.2457 12.26 99.4876 12.4 99.692 12.6933L101.825 11.2067ZM98.8086 9.66C97.5657 9.66 96.5076 10.18 95.792 11.2067L97.9251 12.6933C98.1295 12.4 98.3714 12.26 98.8086 12.26V9.66ZM95.8029 11.1913C95.1206 12.1406 94.8686 13.3715 94.8686 14.71H97.4686C97.4686 13.6485 97.6765 13.0394 97.9142 12.7087L95.8029 11.1913Z" fill="#B7403D" fill-opacity="0.75"/>
</svg>
