<svg width="44" height="36" viewBox="0 0 44 36" fill="none" xmlns="http://www.w3.org/2000/svg">
<g id="&#240;&#159;&#166;&#134; icon &#34;home&#34;">
<g id="Group">
<path id="Vector" d="M18.3333 21.1056H25.6666V31.3559H18.3333V21.1056Z" fill="white" fill-opacity="0.75"/>
<path id="Vector_2" d="M37.4366 15.5119L23.3016 3.97294C23.1312 3.83569 22.9284 3.72675 22.705 3.65241C22.4816 3.57807 22.242 3.53979 22 3.53979C21.7579 3.53979 21.5183 3.57807 21.2949 3.65241C21.0715 3.72675 20.8687 3.83569 20.6983 3.97294L6.5633 15.5265C6.22127 15.8019 5.95114 16.1288 5.7686 16.4883C5.58606 16.8478 5.49475 17.2326 5.49997 17.6205V29.8916C5.49855 30.6412 5.85705 31.3627 6.50165 31.9075C7.14626 32.4524 8.02788 32.779 8.96497 32.8202H14.6666V19.6413C14.6666 19.2529 14.8598 18.8804 15.2036 18.6058C15.5474 18.3312 16.0137 18.1769 16.5 18.1769H27.5C27.9862 18.1769 28.4525 18.3312 28.7963 18.6058C29.1402 18.8804 29.3333 19.2529 29.3333 19.6413V32.8202H35.035C35.9721 32.779 36.8537 32.4524 37.4983 31.9075C38.1429 31.3627 38.5014 30.6412 38.5 29.8916V17.6205C38.5014 16.8341 38.1201 16.0779 37.4366 15.5119Z" fill="white" fill-opacity="0.75"/>
</g>
</g>
</svg>
