<svg width="27" height="27" viewBox="0 0 27 27" fill="none" xmlns="http://www.w3.org/2000/svg">
<g id="&#240;&#159;&#166;&#134; icon &#34;magnifying glass&#34;">
<path id="Vector" d="M11.4286 0.853463C5.12653 0.853463 0 5.9095 0 12.1249C0 18.3403 5.12653 23.3963 11.4286 23.3963C13.3551 23.3963 15.249 22.9454 16.849 22.0759C16.9771 22.228 17.1192 22.3682 17.2735 22.4946L20.5388 25.715C20.8403 26.0496 21.2079 26.3199 21.6192 26.5093C22.0305 26.6987 22.4766 26.8031 22.9303 26.8163C23.384 26.8295 23.8356 26.7511 24.2575 26.5859C24.6793 26.4207 25.0625 26.1722 25.3834 25.8556C25.7043 25.5391 25.9563 25.1612 26.1238 24.7452C26.2913 24.3291 26.3708 23.8837 26.3575 23.4363C26.3441 22.9888 26.2382 22.5488 26.0461 22.1432C25.8541 21.7376 25.5801 21.375 25.2408 21.0776L21.9755 17.8572C21.8164 17.7003 21.6413 17.56 21.453 17.4385C22.3347 15.8605 22.8898 14.0249 22.8898 12.0927C22.8898 5.87729 17.7632 0.821259 11.4612 0.821259L11.4286 0.853463ZM11.4286 4.07387C15.9673 4.07387 19.5918 7.64852 19.5918 12.1249C19.5918 14.2503 18.8081 16.2148 17.4367 17.664C17.4041 17.6962 17.3714 17.7284 17.3388 17.7606C17.1845 17.887 17.0424 18.0271 16.9143 18.1792C15.4775 19.4674 13.5184 20.2081 11.3959 20.2081C6.85714 20.2081 3.23265 16.6334 3.23265 12.1571C3.23265 7.68072 6.85714 4.10607 11.3959 4.10607L11.4286 4.07387Z" fill="white"/>
</g>
</svg>
