<svg width="43" height="37" viewBox="0 0 43 37" fill="none" xmlns="http://www.w3.org/2000/svg">
<g id="&#240;&#159;&#166;&#134; icon &#34;people&#34;">
<g id="Group">
<path id="Vector" d="M15.8204 17.0953C17.1987 17.084 18.543 16.7259 19.6833 16.0662C20.8237 15.4065 21.7089 14.4749 22.227 13.3892C22.745 12.3035 22.8728 11.1125 22.5939 9.96666C22.3151 8.82086 21.6423 7.7718 20.6606 6.95212C19.6788 6.13244 18.4323 5.57897 17.0785 5.36169C15.7248 5.1444 14.3246 5.27308 13.0552 5.73143C11.7857 6.18978 10.7039 6.95723 9.94662 7.93672C9.18932 8.91621 8.79052 10.0638 8.80065 11.2342C8.81422 12.8038 9.56143 14.3031 10.8779 15.4022C12.1944 16.5014 13.9722 17.1104 15.8204 17.0953Z" fill="white" fill-opacity="0.75"/>
<path id="Vector_2" d="M29.7841 19.938C30.8178 19.9296 31.826 19.661 32.6813 19.1662C33.5366 18.6715 34.2005 17.9728 34.589 17.1585C34.9776 16.3442 35.0734 15.4509 34.8643 14.5916C34.6551 13.7322 34.1505 12.9454 33.4142 12.3307C32.6779 11.7159 31.743 11.3008 30.7277 11.1378C29.7124 10.9749 28.6623 11.0714 27.7102 11.4151C26.7581 11.7589 25.9467 12.3345 25.3788 13.0691C24.8108 13.8037 24.5117 14.6644 24.5193 15.5423C24.5295 16.7194 25.0899 17.8439 26.0772 18.6683C27.0646 19.4926 28.398 19.9494 29.7841 19.938Z" fill="white" fill-opacity="0.75"/>
<path id="Vector_3" d="M36.8411 30.238C37.3032 30.2343 37.745 30.0747 38.0693 29.7945C38.3937 29.5143 38.574 29.1364 38.5706 28.744C38.5572 27.3609 38.0878 26.0097 37.2154 24.8435C36.3431 23.6773 35.1029 22.7428 33.6355 22.1462C32.168 21.5495 30.5321 21.3145 28.9134 21.4679C27.2947 21.6212 25.7579 22.1568 24.4775 23.0137C22.7585 21.5839 20.5783 20.6195 18.212 20.242C15.8457 19.8645 13.3991 20.0909 11.1809 20.8926C8.96264 21.6943 7.07205 23.0354 5.74754 24.7468C4.42302 26.4582 3.7239 28.4633 3.73834 30.5091C3.74173 30.9016 3.92855 31.2765 4.25768 31.5513C4.58682 31.8262 5.03132 31.9785 5.49339 31.9747L26.4004 31.8035C26.8625 31.7997 27.3043 31.6401 27.6286 31.36C27.953 31.0798 28.1333 30.7019 28.1299 30.3094" fill="white" fill-opacity="0.75"/>
</g>
</g>
</svg>
