<svg width="33" height="33" viewBox="0 0 33 33" fill="none" xmlns="http://www.w3.org/2000/svg">
<path id="Vector" d="M12.09 6.74336e-05C9.255 -0.016375 6.495 2.97615 7.755 6.69213H3C2.20435 6.69213 1.44129 7.0386 0.87868 7.65531C0.316071 8.27202 0 9.10845 0 9.98061V13.2691C0 13.7052 0.158035 14.1234 0.43934 14.4318C0.720644 14.7401 1.10218 14.9133 1.5 14.9133H15V9.98061H18V14.9133H31.5C31.8978 14.9133 32.2794 14.7401 32.5607 14.4318C32.842 14.1234 33 13.7052 33 13.2691V9.98061C33 9.10845 32.6839 8.27202 32.1213 7.65531C31.5587 7.0386 30.7956 6.69213 30 6.69213H25.245C27 1.31546 20.4 -2.48274 17.355 2.15402L16.5 3.40365L15.645 2.12114C14.7 0.657764 13.395 0.0165099 12.09 6.74336e-05ZM12 3.40365C13.335 3.40365 14.01 5.17943 13.065 6.2153C12.12 7.25117 10.5 6.51126 10.5 5.04789C10.5 4.61181 10.658 4.19359 10.9393 3.88524C11.2206 3.57688 11.6022 3.40365 12 3.40365ZM21 3.40365C22.335 3.40365 23.01 5.17943 22.065 6.2153C21.12 7.25117 19.5 6.51126 19.5 5.04789C19.5 4.61181 19.658 4.19359 19.9393 3.88524C20.2206 3.57688 20.6022 3.40365 21 3.40365ZM1.5 16.5576V29.7115C1.5 30.5837 1.81607 31.4201 2.37868 32.0368C2.94129 32.6535 3.70435 33 4.5 33H28.5C29.2956 33 30.0587 32.6535 30.6213 32.0368C31.1839 31.4201 31.5 30.5837 31.5 29.7115V16.5576H18V29.7115H15V16.5576H1.5Z" fill="white" fill-opacity="0.75"/>
</svg>
